<svg xmlns="http://www.w3.org/2000/svg" viewBox="0 0 256 256" role="img" aria-label="Celebrating panda">
  <rect width="256" height="256" rx="48" fill="#f0fdf4"/>
  <path d="M52 62l10 20 22 3-16 15 4 22-20-11-20 11 4-22-16-15 22-3z" fill="#fbbf24"/>
  <path d="M205 54l6 12 13 2-9 9 2 13-12-6-12 6 2-13-9-9 13-2z" fill="#f472b6"/>
  <circle cx="84" cy="78" r="34" fill="#18181b"/>
  <circle cx="172" cy="78" r="34" fill="#18181b"/>
  <circle cx="128" cy="118" r="76" fill="#18181b"/>
  <circle cx="128" cy="126" r="58" fill="#fff"/>
  <ellipse cx="104" cy="118" rx="18" ry="24" fill="#18181b"/>
  <ellipse cx="152" cy="118" rx="18" ry="24" fill="#18181b"/>
  <path d="M96 113q8-10 18 0" fill="none" stroke="#fff" stroke-width="6" stroke-linecap="round"/>
  <path d="M142 113q8-10 18 0" fill="none" stroke="#fff" stroke-width="6" stroke-linecap="round"/>
  <ellipse cx="128" cy="142" rx="12" ry="8" fill="#18181b"/>
  <path d="M106 158q22 25 44 0" fill="none" stroke="#18181b" stroke-width="8" stroke-linecap="round"/>
  <ellipse cx="128" cy="203" rx="58" ry="36" fill="#fff"/>
  <circle cx="72" cy="194" r="22" fill="#18181b"/>
  <circle cx="184" cy="194" r="22" fill="#18181b"/>
</svg>
