<svg xmlns="http://www.w3.org/2000/svg" viewBox="0 0 256 256" role="img" aria-label="Level up panda">
  <rect width="256" height="256" rx="48" fill="#fffbeb"/>
  <path d="M128 18l14 32 35 4-26 23 8 34-31-18-31 18 8-34-26-23 35-4z" fill="#facc15"/>
  <circle cx="84" cy="84" r="34" fill="#18181b"/>
  <circle cx="172" cy="84" r="34" fill="#18181b"/>
  <circle cx="128" cy="124" r="76" fill="#18181b"/>
  <circle cx="128" cy="132" r="58" fill="#fff"/>
  <ellipse cx="104" cy="124" rx="18" ry="24" fill="#18181b"/>
  <ellipse cx="152" cy="124" rx="18" ry="24" fill="#18181b"/>
  <circle cx="110" cy="120" r="5" fill="#fff"/>
  <circle cx="158" cy="120" r="5" fill="#fff"/>
  <ellipse cx="128" cy="148" rx="12" ry="8" fill="#18181b"/>
  <path d="M106 164q22 25 44 0" fill="none" stroke="#18181b" stroke-width="8" stroke-linecap="round"/>
  <ellipse cx="128" cy="208" rx="58" ry="32" fill="#fff"/>
  <circle cx="72" cy="200" r="22" fill="#18181b"/>
  <circle cx="184" cy="200" r="22" fill="#18181b"/>
</svg>
